<?xml version="1.0" encoding="UTF-8"?>
<svg id="Layer_2" data-name="Layer 2" xmlns="http://www.w3.org/2000/svg" viewBox="0 0 1120.5 191.41">
  <defs>
    <style>
      .cls-1 {
        fill: #43a997;
      }

      .cls-2 {
        fill: #fff;
      }

      .cls-3 {
        fill: #1a5853;
      }

      .cls-4 {
        fill: #8bc2df;
      }

      .cls-5 {
        fill: #99d4c3;
      }
    </style>
  </defs>
  <g id="Layer_1-2" data-name="Layer 1">
    <g>
      <g>
        <path class="cls-5" d="M94.73,0C42.41,0,0,42.41,0,94.73s42.41,94.73,94.73,94.73h94.73v-94.73C189.47,42.41,147.05,0,94.73,0Z"/>
        <path class="cls-1" d="M94.73,174.75c-44.12,0-80.02-35.9-80.02-80.02S50.61,14.71,94.73,14.71s80.02,35.9,80.02,80.02v80.02h-80.02Z"/>
        <path class="cls-2" d="M94.73,160.04c-36.01,0-65.31-29.3-65.31-65.31S58.72,29.42,94.73,29.42s65.31,29.3,65.31,65.31v65.31h-65.31Z"/>
        <circle class="cls-4" cx="94.73" cy="94.73" r="47.37"/>
        <path class="cls-3" d="M94.73,142.1c-26.16,0-47.37-21.21-47.37-47.37s21.21-47.37,47.37-47.37v94.73Z"/>
      </g>
      <g>
        <path class="cls-3" d="M244.48,115.25V36.04h18.05v79.21h-18.05Z"/>
        <path class="cls-3" d="M321.51,36.04h18.05v79.21h-15.86l-25.98-45.53v45.53h-18.05V36.04h16.55l25.29,44.95v-44.95Z"/>
        <path class="cls-3" d="M352.43,92.14h18.05c0,5.06,5.06,8.97,11.27,8.97,5.86,0,10.35-2.99,10.35-8.16,0-3.1-1.72-5.98-8.74-8.28l-9.43-2.87c-17.48-4.71-20.81-15.41-20.81-22.88,0-14.26,12.19-24.26,27.94-24.26s26.79,9.08,26.79,24.49h-18.05c0-4.71-2.87-8.74-9.08-8.74-5.63,0-9.31,3.79-9.31,8.16,0,1.61.46,5.17,7.82,7.24l8.28,2.65c11.27,3.45,22.76,9.2,22.76,23.57,0,17.01-14.72,24.6-29.2,24.6-16.9,0-28.63-9.89-28.63-24.49Z"/>
        <path class="cls-3" d="M422.9,115.25V36.04h18.05v79.21h-18.05Z"/>
        <path class="cls-3" d="M453.49,75.7c0-22.53,17.82-41.04,40.7-41.04,12.53,0,23.45,5.29,30.35,13.57l-13.34,11.15c-4.25-4.94-10.23-7.93-17.01-7.93-12.76,0-22.53,11.04-22.53,24.26s9.54,24.83,23.11,24.83c8.85,0,18.62-4.94,18.62-12.76h-22.3v-14.6h41.96c0,30.01-16.67,43.46-37.82,43.46-24.37,0-41.73-18.62-41.73-40.93Z"/>
        <path class="cls-3" d="M588.34,36.04h18.05v79.21h-18.05v-31.27h-26.1v31.27h-18.05V36.04h18.05v31.73h26.1v-31.73Z"/>
        <path class="cls-3" d="M676.63,36.04v15.75h-20.92v63.46h-18.05v-63.46h-20.92v-15.75h59.9Z"/>
        <path class="cls-3" d="M704.33,75.47c0-22.3,17.93-40.81,40.24-40.81,13.91,0,26.1,7.01,33.34,17.59l-14.03,9.77c-4.14-6.44-10.23-10.35-18.51-10.35-13.34,0-22.88,10.69-22.88,23.8s9.2,24.14,22.76,24.14c8.39,0,14.49-3.91,18.62-10.35l14.03,9.77c-7.24,10.58-19.43,17.59-33.34,17.59-22.3,0-40.24-18.62-40.24-41.16Z"/>
        <path class="cls-3" d="M806.54,99.5h33.8v15.75h-51.85V36.04h50.81v15.75h-32.76v16.33h28.74v16.21h-28.74v15.18Z"/>
        <path class="cls-3" d="M895.75,36.04h18.05v79.21h-15.86l-25.98-45.53v45.53h-18.05V36.04h16.55l25.29,44.95v-44.95Z"/>
        <path class="cls-3" d="M983.92,36.04v15.75h-20.92v63.46h-18.05v-63.46h-20.92v-15.75h59.9Z"/>
        <path class="cls-3" d="M1012.2,99.5h33.8v15.75h-51.85V36.04h50.81v15.75h-32.76v16.33h28.74v16.21h-28.74v15.18Z"/>
        <path class="cls-3" d="M1099.46,115.25l-18.16-27.82h-3.68v27.82h-18.05V36.04h32.42c18.39,0,26.67,13.11,26.67,26.21,0,11.15-8.28,21.84-18.51,24.14l20.35,28.86h-21.04ZM1077.62,51.79v21.38h11.5c7.93,0,11.38-5.17,11.38-10.46s-3.56-10.92-10.92-10.92h-11.96Z"/>
      </g>
      <g>
        <path class="cls-4" d="M242.68,158.75h18.17v6.24h-10.99v6.94h8.71v6.24h-8.71v12.67h-7.18v-32.1Z"/>
        <path class="cls-4" d="M271.98,174.77c0-9.6,5.78-16.59,14.07-16.59s14.07,6.99,14.07,16.59-5.82,16.63-14.07,16.63-14.07-7.03-14.07-16.63ZM292.95,174.77c0-5.64-2.79-9.83-6.94-9.83s-6.8,4.19-6.8,9.83,2.7,9.88,6.8,9.88,6.94-4.24,6.94-9.88Z"/>
        <path class="cls-4" d="M313.92,158.75h11.74c6.71,0,10.06,5.03,10.02,10.58-.09,4.75-3.12,8.11-6.29,9.18l6.99,12.35h-8.11l-6.2-11.74h-1.03v11.74h-7.13v-32.1ZM324.64,173.94c2.66,0,3.73-2.05,3.73-4.43s-1.12-4.52-3.63-4.52h-3.68v8.95h3.59Z"/>
        <path class="cls-1" d="M366.25,174.73c0-9.78,6.43-16.54,14.21-16.54,5.03,0,9.36,2.61,11.83,7.31l-5.68,3.49c-1.3-2.66-3.31-4.05-6.01-4.05-4.38,0-7.22,4.1-7.22,9.78s2.8,9.92,7.22,9.92c2.7,0,4.71-1.4,6.01-4.05l5.68,3.49c-2.47,4.71-6.8,7.31-11.83,7.31-7.78,0-14.21-6.75-14.21-16.68Z"/>
        <path class="cls-1" d="M403.53,174.77c0-9.6,5.78-16.59,14.07-16.59s14.07,6.99,14.07,16.59-5.82,16.63-14.07,16.63-14.07-7.03-14.07-16.63ZM424.49,174.77c0-5.64-2.79-9.83-6.94-9.83s-6.8,4.19-6.8,9.83,2.7,9.88,6.8,9.88,6.94-4.24,6.94-9.88Z"/>
        <path class="cls-1" d="M444.11,174.77c0-9.83,6.38-16.59,14.4-16.59,4.61,0,8.67,1.96,11.13,5.92l-5.64,3.87c-1.3-2-3.26-3.08-5.45-3.08-4.38,0-7.36,4.57-7.36,9.88s2.94,10.11,7.5,10.11c3.03,0,5.82-1.72,6.38-5.31h-7.22v-5.73h14.44c0,12.39-5.73,17.56-13.46,17.56-8.43,0-14.72-6.75-14.72-16.63Z"/>
        <path class="cls-1" d="M485.45,158.75h6.57l8.15,17.47v-17.47h7.17v32.1h-6.43l-8.29-17.52v17.52h-7.18v-32.1Z"/>
        <path class="cls-1" d="M522.44,158.75h7.18v32.1h-7.18v-32.1Z"/>
        <path class="cls-1" d="M549.8,164.99h-7.31v-6.24h21.8v6.24h-7.36v25.86h-7.13v-25.86Z"/>
        <path class="cls-1" d="M577.06,158.75h7.18v32.1h-7.18v-32.1Z"/>
        <path class="cls-1" d="M596.81,158.75h7.41l4.66,21.71,4.57-21.71h7.45l-8.43,32.1h-7.18l-8.48-32.1Z"/>
        <path class="cls-1" d="M633.48,158.75h18.45v6.24h-11.28v6.85h9.88v6.43h-9.88v6.34h11.6v6.24h-18.78v-32.1Z"/>
        <path class="cls-1" d="M684.13,158.75h11.74c8.11,0,12.49,6.94,12.49,16.12s-4.38,15.98-12.49,15.98h-11.74v-32.1ZM695.18,184.6c4.05,0,5.96-4.52,5.96-9.74s-1.91-9.88-6.01-9.88h-3.82v19.62h3.87Z"/>
        <path class="cls-1" d="M722.2,158.75h18.45v6.24h-11.28v6.85h9.88v6.43h-9.88v6.34h11.6v6.24h-18.78v-32.1Z"/>
        <path class="cls-1" d="M752.4,158.75h7.41l4.66,21.71,4.57-21.71h7.45l-8.43,32.1h-7.18l-8.48-32.1Z"/>
        <path class="cls-1" d="M789.07,158.75h18.45v6.24h-11.28v6.85h9.88v6.43h-9.88v6.34h11.6v6.24h-18.78v-32.1Z"/>
        <path class="cls-1" d="M821.83,158.75h7.18v25.86h10.16v6.24h-17.33v-32.1Z"/>
        <path class="cls-1" d="M849.46,174.77c0-9.6,5.78-16.59,14.07-16.59s14.07,6.99,14.07,16.59-5.82,16.63-14.07,16.63-14.07-7.03-14.07-16.63ZM870.43,174.77c0-5.64-2.79-9.83-6.94-9.83s-6.8,4.19-6.8,9.83,2.7,9.88,6.8,9.88,6.94-4.24,6.94-9.88Z"/>
        <path class="cls-1" d="M891.4,158.75h11.97c6.66,0,9.78,5.08,9.78,10.58s-3.12,10.58-9.78,10.58h-4.84v10.95h-7.13v-32.1ZM902.67,173.66c2.42,0,3.26-2.19,3.26-4.33s-.84-4.33-3.26-4.33h-4.15v8.67h4.15Z"/>
        <path class="cls-1" d="M927.89,158.75h6.24l7.69,19.71,7.64-19.71h6.29l3.31,32.1h-7.17l-1.77-18.45-5.64,14.91h-5.26l-5.73-14.91-1.77,18.45h-7.18l3.35-32.1Z"/>
        <path class="cls-1" d="M972.85,158.75h18.45v6.24h-11.28v6.85h9.88v6.43h-9.88v6.34h11.6v6.24h-18.78v-32.1Z"/>
        <path class="cls-1" d="M1005.61,158.75h6.57l8.15,17.47v-17.47h7.17v32.1h-6.43l-8.29-17.52v17.52h-7.18v-32.1Z"/>
        <path class="cls-1" d="M1047.64,164.99h-7.31v-6.24h21.8v6.24h-7.36v25.86h-7.13v-25.86Z"/>
      </g>
    </g>
  </g>
</svg>