<?xml version="1.0" encoding="UTF-8"?>
<svg id="Layer_2" data-name="Layer 2" xmlns="http://www.w3.org/2000/svg" viewBox="0 0 1129.99 193.38">
  <defs>
    <style>
      .cls-1 {
        fill: #43a997;
      }

      .cls-2 {
        fill: #fff;
      }

      .cls-3 {
        fill: #1a5853;
      }

      .cls-4 {
        fill: #8bc2df;
      }

      .cls-5 {
        fill: #99d4c3;
      }
    </style>
  </defs>
  <g id="Layer_1-2" data-name="Layer 1">
    <g>
      <g>
        <path class="cls-5" d="M95.41,0C42.72,0,0,42.72,0,95.41s42.72,95.41,95.41,95.41h95.41v-95.41C190.82,42.72,148.11,0,95.41,0Z"/>
        <path class="cls-1" d="M95.41,176c-44.44,0-80.59-36.15-80.59-80.59S50.97,14.82,95.41,14.82s80.59,36.15,80.59,80.59v80.59h-80.59Z"/>
        <path class="cls-2" d="M95.41,161.19c-36.27,0-65.78-29.51-65.78-65.78S59.14,29.63,95.41,29.63s65.78,29.51,65.78,65.78v65.78h-65.78Z"/>
        <circle class="cls-4" cx="95.41" cy="95.41" r="47.71"/>
        <path class="cls-3" d="M95.41,143.12c-26.35,0-47.71-21.36-47.71-47.71s21.36-47.71,47.71-47.71v95.41Z"/>
      </g>
      <g>
        <path class="cls-2" d="M246.23,116.07V36.3h18.18v79.78h-18.18Z"/>
        <path class="cls-2" d="M323.81,36.3h18.18v79.78h-15.98l-26.17-45.85v45.85h-18.18V36.3h16.67l25.47,45.27v-45.27Z"/>
        <path class="cls-2" d="M354.95,92.8h18.18c0,5.1,5.1,9.03,11.35,9.03,5.9,0,10.42-3.01,10.42-8.22,0-3.13-1.74-6.02-8.8-8.34l-9.49-2.9c-17.6-4.75-20.96-15.52-20.96-23.04,0-14.36,12.27-24.43,28.14-24.43s26.98,9.15,26.98,24.66h-18.18c0-4.75-2.9-8.8-9.15-8.8-5.67,0-9.38,3.82-9.38,8.22,0,1.62.46,5.21,7.87,7.29l8.34,2.66c11.35,3.47,22.93,9.26,22.93,23.74,0,17.14-14.82,24.78-29.41,24.78-17.02,0-28.83-9.96-28.83-24.66Z"/>
        <path class="cls-2" d="M425.93,116.07V36.3h18.18v79.78h-18.18Z"/>
        <path class="cls-2" d="M456.73,76.24c0-22.69,17.95-41.34,40.99-41.34,12.62,0,23.62,5.33,30.57,13.66l-13.43,11.23c-4.28-4.98-10.3-7.99-17.14-7.99-12.85,0-22.69,11.12-22.69,24.43s9.61,25.01,23.27,25.01c8.92,0,18.76-4.98,18.76-12.85h-22.46v-14.7h42.26c0,30.22-16.79,43.77-38.09,43.77-24.55,0-42.03-18.76-42.03-41.22Z"/>
        <path class="cls-2" d="M592.54,36.3h18.18v79.78h-18.18v-31.49h-26.28v31.49h-18.18V36.3h18.18v31.96h26.28v-31.96Z"/>
        <path class="cls-2" d="M681.47,36.3v15.86h-21.07v63.91h-18.18v-63.91h-21.07v-15.86h60.32Z"/>
        <path class="cls-2" d="M709.37,76.01c0-22.46,18.06-41.1,40.52-41.1,14.01,0,26.28,7.06,33.58,17.71l-14.13,9.84c-4.17-6.48-10.31-10.42-18.64-10.42-13.43,0-23.04,10.77-23.04,23.97s9.26,24.31,22.93,24.31c8.45,0,14.59-3.94,18.76-10.42l14.13,9.84c-7.29,10.65-19.57,17.71-33.58,17.71-22.46,0-40.52-18.76-40.52-41.45Z"/>
        <path class="cls-2" d="M812.31,100.21h34.04v15.86h-52.22V36.3h51.18v15.86h-33v16.44h28.95v16.33h-28.95v15.28Z"/>
        <path class="cls-2" d="M902.15,36.3h18.18v79.78h-15.98l-26.17-45.85v45.85h-18.18V36.3h16.67l25.47,45.27v-45.27Z"/>
        <path class="cls-2" d="M990.96,36.3v15.86h-21.07v63.91h-18.18v-63.91h-21.07v-15.86h60.32Z"/>
        <path class="cls-2" d="M1019.44,100.21h34.04v15.86h-52.22V36.3h51.18v15.86h-33v16.44h28.95v16.33h-28.95v15.28Z"/>
        <path class="cls-2" d="M1107.32,116.07l-18.29-28.02h-3.7v28.02h-18.18V36.3h32.65c18.53,0,26.86,13.2,26.86,26.4,0,11.23-8.34,22-18.64,24.31l20.49,29.06h-21.19ZM1085.32,52.16v21.54h11.58c7.99,0,11.46-5.21,11.46-10.54s-3.59-11-11-11h-12.04Z"/>
      </g>
      <g>
        <path class="cls-4" d="M245.07,154.74h21.5v7.39h-13.01v8.21h10.31v7.39h-10.31v14.99h-8.49v-37.98Z"/>
        <path class="cls-4" d="M276.22,173.7c0-11.36,6.84-19.62,16.65-19.62s16.65,8.27,16.65,19.62-6.89,19.68-16.65,19.68-16.65-8.32-16.65-19.68ZM301.03,173.7c0-6.67-3.31-11.63-8.21-11.63s-8.05,4.96-8.05,11.63,3.2,11.69,8.05,11.69,8.21-5.02,8.21-11.69Z"/>
        <path class="cls-4" d="M322.31,154.74h13.89c7.94,0,11.91,5.95,11.85,12.51-.11,5.62-3.69,9.59-7.44,10.86l8.27,14.61h-9.59l-7.33-13.89h-1.21v13.89h-8.43v-37.98ZM334.99,172.71c3.14,0,4.41-2.43,4.41-5.24s-1.32-5.35-4.3-5.35h-4.35v10.58h4.24Z"/>
        <path class="cls-5" d="M377.17,173.65c0-11.58,7.61-19.57,16.81-19.57,5.95,0,11.08,3.09,14,8.65l-6.73,4.14c-1.54-3.14-3.91-4.8-7.11-4.8-5.18,0-8.54,4.85-8.54,11.58s3.31,11.74,8.54,11.74c3.2,0,5.57-1.65,7.11-4.8l6.73,4.14c-2.92,5.57-8.05,8.65-14,8.65-9.21,0-16.81-7.99-16.81-19.74Z"/>
        <path class="cls-5" d="M417.75,173.7c0-11.36,6.84-19.62,16.65-19.62s16.65,8.27,16.65,19.62-6.89,19.68-16.65,19.68-16.65-8.32-16.65-19.68ZM442.56,173.7c0-6.67-3.31-11.63-8.21-11.63s-8.05,4.96-8.05,11.63,3.2,11.69,8.05,11.69,8.21-5.02,8.21-11.69Z"/>
        <path class="cls-5" d="M462.25,173.7c0-11.63,7.55-19.62,17.03-19.62,5.46,0,10.25,2.32,13.18,7l-6.67,4.58c-1.54-2.37-3.86-3.64-6.45-3.64-5.18,0-8.71,5.4-8.71,11.69s3.47,11.96,8.88,11.96c3.58,0,6.89-2.04,7.55-6.28h-8.55v-6.78h17.09c0,14.66-6.78,20.78-15.93,20.78-9.98,0-17.42-7.99-17.42-19.68Z"/>
        <path class="cls-5" d="M507.62,154.74h7.77l9.65,20.67v-20.67h8.49v37.98h-7.61l-9.81-20.73v20.73h-8.49v-37.98Z"/>
        <path class="cls-5" d="M547.87,154.74h8.49v37.98h-8.49v-37.98Z"/>
        <path class="cls-5" d="M576.71,162.13h-8.65v-7.39h25.8v7.39h-8.71v30.6h-8.43v-30.6Z"/>
        <path class="cls-5" d="M605.43,154.74h8.49v37.98h-8.49v-37.98Z"/>
        <path class="cls-5" d="M625.28,154.74h8.77l5.51,25.69,5.4-25.69h8.82l-9.98,37.98h-8.49l-10.03-37.98Z"/>
        <path class="cls-5" d="M665.15,154.74h21.83v7.39h-13.34v8.1h11.69v7.61h-11.69v7.5h13.73v7.39h-22.22v-37.98Z"/>
        <path class="cls-5" d="M718.02,154.74h13.89c9.59,0,14.77,8.21,14.77,19.07s-5.18,18.91-14.77,18.91h-13.89v-37.98ZM731.09,185.33c4.8,0,7.06-5.35,7.06-11.52s-2.26-11.69-7.11-11.69h-4.52v23.21h4.58Z"/>
        <path class="cls-5" d="M759.54,154.74h21.83v7.39h-13.34v8.1h11.69v7.61h-11.69v7.5h13.73v7.39h-22.22v-37.98Z"/>
        <path class="cls-5" d="M791.74,154.74h8.77l5.51,25.69,5.4-25.69h8.82l-9.98,37.98h-8.49l-10.03-37.98Z"/>
        <path class="cls-5" d="M831.6,154.74h21.83v7.39h-13.34v8.1h11.69v7.61h-11.69v7.5h13.73v7.39h-22.22v-37.98Z"/>
        <path class="cls-5" d="M866.83,154.74h8.49v30.6h12.02v7.39h-20.51v-37.98Z"/>
        <path class="cls-5" d="M896,173.7c0-11.36,6.84-19.62,16.65-19.62s16.65,8.27,16.65,19.62-6.89,19.68-16.65,19.68-16.65-8.32-16.65-19.68ZM920.81,173.7c0-6.67-3.31-11.63-8.21-11.63s-8.05,4.96-8.05,11.63,3.2,11.69,8.05,11.69,8.21-5.02,8.21-11.69Z"/>
        <path class="cls-5" d="M942.09,154.74h14.17c7.88,0,11.58,6.01,11.58,12.51s-3.69,12.51-11.58,12.51h-5.73v12.95h-8.43v-37.98ZM955.43,172.38c2.87,0,3.86-2.59,3.86-5.13s-.99-5.13-3.86-5.13h-4.91v10.25h4.91Z"/>
        <path class="cls-5" d="M981.74,154.74h7.39l9.1,23.32,9.04-23.32h7.44l3.91,37.98h-8.49l-2.1-21.83-6.67,17.64h-6.23l-6.78-17.64-2.1,21.83h-8.49l3.97-37.98Z"/>
        <path class="cls-5" d="M1031.41,154.74h21.83v7.39h-13.34v8.1h11.69v7.61h-11.69v7.5h13.73v7.39h-22.22v-37.98Z"/>
        <path class="cls-5" d="M1066.65,154.74h7.77l9.65,20.67v-20.67h8.49v37.98h-7.61l-9.81-20.73v20.73h-8.49v-37.98Z"/>
        <path class="cls-5" d="M1112.85,162.13h-8.65v-7.39h25.8v7.39h-8.71v30.6h-8.43v-30.6Z"/>
      </g>
    </g>
  </g>
</svg>