<?xml version="1.0" encoding="UTF-8"?>
<svg id="Layer_2" data-name="Layer 2" xmlns="http://www.w3.org/2000/svg" viewBox="0 0 1617.6 190.82">
  <defs>
    <style>
      .cls-1 {
        fill: #43a997;
      }

      .cls-2 {
        fill: #fff;
      }

      .cls-3 {
        fill: #1a5853;
      }

      .cls-4 {
        fill: #8bc2df;
      }

      .cls-5 {
        fill: #99d4c3;
      }
    </style>
  </defs>
  <g id="Layer_1-2" data-name="Layer 1">
    <g>
      <g>
        <path class="cls-5" d="M95.41,0C42.72,0,0,42.72,0,95.41s42.72,95.41,95.41,95.41h95.41v-95.41C190.82,42.72,148.11,0,95.41,0Z"/>
        <path class="cls-1" d="M95.41,176c-44.44,0-80.59-36.15-80.59-80.59S50.97,14.82,95.41,14.82s80.59,36.15,80.59,80.59v80.59h-80.59Z"/>
        <path class="cls-2" d="M95.41,161.19c-36.27,0-65.78-29.51-65.78-65.78S59.14,29.63,95.41,29.63s65.78,29.51,65.78,65.78v65.78h-65.78Z"/>
        <circle class="cls-4" cx="95.41" cy="95.41" r="47.71"/>
        <path class="cls-3" d="M95.41,143.12c-26.35,0-47.71-21.36-47.71-47.71s21.36-47.71,47.71-47.71v95.41Z"/>
      </g>
      <g>
        <path class="cls-2" d="M268.04,159.06V37.03h27.81v122.03h-27.81Z"/>
        <path class="cls-2" d="M386.7,37.03h27.81v122.03h-24.44l-40.03-70.13v70.13h-27.81V37.03h25.5l38.97,69.25V37.03Z"/>
        <path class="cls-2" d="M434.34,123.46h27.81c0,7.79,7.79,13.81,17.36,13.81,9.03,0,15.94-4.6,15.94-12.57,0-4.78-2.66-9.21-13.46-12.75l-14.52-4.43c-26.92-7.26-32.06-23.73-32.06-35.24,0-21.96,18.77-37.37,43.04-37.37s41.27,13.99,41.27,37.72h-27.81c0-7.26-4.43-13.46-13.99-13.46-8.68,0-14.35,5.85-14.35,12.57,0,2.48.71,7.97,12.04,11.16l12.75,4.07c17.36,5.31,35.07,14.17,35.07,36.31,0,26.21-22.67,37.9-44.99,37.9-26.04,0-44.1-15.23-44.1-37.72Z"/>
        <path class="cls-2" d="M542.91,159.06V37.03h27.81v122.03h-27.81Z"/>
        <path class="cls-2" d="M590.02,98.14c0-34.71,27.45-63.23,62.7-63.23,19.31,0,36.13,8.15,46.76,20.9l-20.55,17.18c-6.55-7.61-15.76-12.22-26.21-12.22-19.66,0-34.71,17-34.71,37.37s14.7,38.25,35.6,38.25c13.64,0,28.69-7.62,28.69-19.66h-34.36v-22.49h64.64c0,46.23-25.68,66.95-58.27,66.95-37.55,0-64.29-28.69-64.29-63.05Z"/>
        <path class="cls-2" d="M797.76,37.03h27.81v122.03h-27.81v-48.17h-40.2v48.17h-27.81V37.03h27.81v48.88h40.2v-48.88Z"/>
        <path class="cls-2" d="M933.78,37.03v24.26h-32.23v97.76h-27.81V61.3h-32.23v-24.26h92.27Z"/>
        <path class="cls-2" d="M976.47,97.78c0-34.36,27.63-62.87,61.99-62.87,21.43,0,40.2,10.8,51.36,27.1l-21.61,15.06c-6.38-9.92-15.76-15.94-28.52-15.94-20.55,0-35.24,16.47-35.24,36.66s14.17,37.19,35.07,37.19c12.93,0,22.32-6.02,28.69-15.94l21.61,15.06c-11.16,16.29-29.93,27.1-51.36,27.1-34.36,0-61.99-28.69-61.99-63.4Z"/>
        <path class="cls-2" d="M1133.92,134.8h52.07v24.26h-79.88V37.03h78.28v24.26h-50.48v25.15h44.28v24.97h-44.28v23.38Z"/>
        <path class="cls-2" d="M1271.35,37.03h27.81v122.03h-24.44l-40.03-70.13v70.13h-27.81V37.03h25.5l38.97,69.25V37.03Z"/>
        <path class="cls-2" d="M1407.19,37.03v24.26h-32.23v97.76h-27.81V61.3h-32.23v-24.26h92.27Z"/>
        <path class="cls-2" d="M1450.76,134.8h52.07v24.26h-79.88V37.03h78.28v24.26h-50.48v25.15h44.28v24.97h-44.28v23.38Z"/>
        <path class="cls-2" d="M1585.18,159.06l-27.98-42.86h-5.67v42.86h-27.81V37.03h49.95c28.34,0,41.09,20.19,41.09,40.38,0,17.18-12.75,33.65-28.51,37.19l31.35,44.45h-32.41ZM1551.53,61.3v32.94h17.71c12.22,0,17.53-7.97,17.53-16.12s-5.49-16.83-16.83-16.83h-18.42Z"/>
      </g>
    </g>
  </g>
</svg>