<?xml version="1.0" encoding="UTF-8"?>
<svg id="Layer_2" data-name="Layer 2" xmlns="http://www.w3.org/2000/svg" viewBox="0 0 378.85 378.85">
  <defs>
    <style>
      .cls-1 {
        fill: #43a997;
      }

      .cls-2 {
        fill: #fff;
      }

      .cls-3 {
        fill: #1a5853;
      }

      .cls-4 {
        fill: #8bc2df;
      }

      .cls-5 {
        fill: #99d4c3;
      }
    </style>
  </defs>
  <g id="Layer_1-2" data-name="Layer 1">
    <g>
      <path class="cls-5" d="M189.43,0C84.81,0,0,84.81,0,189.43s84.81,189.43,189.43,189.43h189.43v-189.43C378.85,84.81,294.04,0,189.43,0Z"/>
      <path class="cls-1" d="M189.42,349.43c-88.23,0-160.01-71.78-160.01-160.01S101.2,29.42,189.42,29.42s160.01,71.78,160.01,160.01v160.01h-160.01Z"/>
      <path class="cls-2" d="M189.42,320.01c-72.01,0-130.59-58.58-130.59-130.59S117.42,58.84,189.42,58.84s130.59,58.58,130.59,130.59v130.59h-130.59Z"/>
      <circle class="cls-4" cx="189.42" cy="189.42" r="94.71"/>
      <path class="cls-3" d="M189.42,284.14c-52.31,0-94.71-42.4-94.71-94.71s42.4-94.71,94.71-94.71v189.43Z"/>
    </g>
  </g>
</svg>