<?xml version="1.0" encoding="UTF-8"?>
<svg id="Layer_2" data-name="Layer 2" xmlns="http://www.w3.org/2000/svg" viewBox="0 0 731.54 304.29">
  <defs>
    <style>
      .cls-1 {
        fill: #43a997;
      }

      .cls-2 {
        fill: #fff;
      }

      .cls-3 {
        fill: #1a5853;
      }

      .cls-4 {
        fill: #8bc2df;
      }

      .cls-5 {
        fill: #99d4c3;
      }
    </style>
  </defs>
  <g id="Layer_1-2" data-name="Layer 1">
    <g>
      <g>
        <path class="cls-4" d="M52.26,277.62h14.83v5.1h-8.98v5.67h7.11v5.1h-7.11v10.35h-5.86v-26.21Z"/>
        <path class="cls-4" d="M76.19,290.71c0-7.84,4.72-13.54,11.49-13.54s11.49,5.71,11.49,13.54-4.76,13.58-11.49,13.58-11.49-5.74-11.49-13.58ZM93.31,290.71c0-4.6-2.28-8.03-5.67-8.03s-5.55,3.42-5.55,8.03,2.21,8.06,5.55,8.06,5.67-3.46,5.67-8.06Z"/>
        <path class="cls-4" d="M110.43,277.62h9.59c5.48,0,8.22,4.11,8.18,8.63-.08,3.88-2.55,6.62-5.14,7.49l5.71,10.08h-6.62l-5.06-9.59h-.84v9.59h-5.82v-26.21ZM119.18,290.02c2.17,0,3.04-1.67,3.04-3.61s-.91-3.69-2.97-3.69h-3v7.3h2.93Z"/>
        <path class="cls-1" d="M153.15,290.67c0-7.99,5.25-13.5,11.6-13.5,4.11,0,7.65,2.13,9.66,5.97l-4.64,2.85c-1.06-2.17-2.7-3.31-4.91-3.31-3.57,0-5.9,3.35-5.9,7.99s2.28,8.1,5.9,8.1c2.21,0,3.84-1.14,4.91-3.31l4.64,2.85c-2.02,3.84-5.55,5.97-9.66,5.97-6.35,0-11.6-5.52-11.6-13.62Z"/>
        <path class="cls-1" d="M183.58,290.71c0-7.84,4.72-13.54,11.49-13.54s11.49,5.71,11.49,13.54-4.76,13.58-11.49,13.58-11.49-5.74-11.49-13.58ZM200.7,290.71c0-4.6-2.28-8.03-5.67-8.03s-5.55,3.42-5.55,8.03,2.21,8.06,5.55,8.06,5.67-3.46,5.67-8.06Z"/>
        <path class="cls-1" d="M216.72,290.71c0-8.03,5.21-13.54,11.75-13.54,3.77,0,7.08,1.6,9.09,4.83l-4.6,3.16c-1.07-1.64-2.66-2.51-4.45-2.51-3.58,0-6.01,3.73-6.01,8.06s2.4,8.25,6.12,8.25c2.47,0,4.76-1.41,5.21-4.34h-5.9v-4.68h11.79c0,10.12-4.68,14.34-10.99,14.34-6.88,0-12.02-5.52-12.02-13.58Z"/>
        <path class="cls-1" d="M250.46,277.62h5.36l6.66,14.26v-14.26h5.86v26.21h-5.25l-6.77-14.3v14.3h-5.86v-26.21Z"/>
        <path class="cls-1" d="M280.67,277.62h5.86v26.21h-5.86v-26.21Z"/>
        <path class="cls-1" d="M303,282.72h-5.97v-5.1h17.8v5.1h-6.01v21.11h-5.82v-21.11Z"/>
        <path class="cls-1" d="M325.26,277.62h5.86v26.21h-5.86v-26.21Z"/>
        <path class="cls-1" d="M341.38,277.62h6.05l3.8,17.73,3.73-17.73h6.09l-6.88,26.21h-5.86l-6.92-26.21Z"/>
        <path class="cls-1" d="M371.33,277.62h15.06v5.1h-9.21v5.59h8.07v5.25h-8.07v5.17h9.47v5.1h-15.33v-26.21Z"/>
        <path class="cls-1" d="M412.68,277.62h9.59c6.62,0,10.19,5.67,10.19,13.16s-3.57,13.05-10.19,13.05h-9.59v-26.21ZM421.69,298.74c3.31,0,4.87-3.69,4.87-7.95s-1.56-8.06-4.91-8.06h-3.12v16.02h3.16Z"/>
        <path class="cls-1" d="M443.76,277.62h15.06v5.1h-9.21v5.59h8.07v5.25h-8.07v5.17h9.47v5.1h-15.33v-26.21Z"/>
        <path class="cls-1" d="M468.41,277.62h6.05l3.8,17.73,3.73-17.73h6.09l-6.88,26.21h-5.86l-6.92-26.21Z"/>
        <path class="cls-1" d="M498.35,277.62h15.06v5.1h-9.21v5.59h8.07v5.25h-8.07v5.17h9.47v5.1h-15.33v-26.21Z"/>
        <path class="cls-1" d="M525.09,277.62h5.86v21.11h8.29v5.1h-14.15v-26.21Z"/>
        <path class="cls-1" d="M547.65,290.71c0-7.84,4.72-13.54,11.49-13.54s11.49,5.71,11.49,13.54-4.76,13.58-11.49,13.58-11.49-5.74-11.49-13.58ZM564.77,290.71c0-4.6-2.28-8.03-5.67-8.03s-5.55,3.42-5.55,8.03,2.21,8.06,5.55,8.06,5.67-3.46,5.67-8.06Z"/>
        <path class="cls-1" d="M581.89,277.62h9.78c5.44,0,7.99,4.15,7.99,8.63s-2.55,8.63-7.99,8.63h-3.96v8.94h-5.82v-26.21ZM591.1,289.8c1.98,0,2.66-1.79,2.66-3.54s-.68-3.54-2.66-3.54h-3.38v7.08h3.38Z"/>
        <path class="cls-1" d="M611.68,277.62h5.1l6.28,16.09,6.24-16.09h5.14l2.7,26.21h-5.86l-1.45-15.06-4.6,12.17h-4.3l-4.68-12.17-1.45,15.06h-5.86l2.74-26.21Z"/>
        <path class="cls-1" d="M648.39,277.62h15.06v5.1h-9.21v5.59h8.07v5.25h-8.07v5.17h9.47v5.1h-15.33v-26.21Z"/>
        <path class="cls-1" d="M675.14,277.62h5.36l6.66,14.26v-14.26h5.86v26.21h-5.25l-6.77-14.3v14.3h-5.86v-26.21Z"/>
        <path class="cls-1" d="M709.45,282.72h-5.97v-5.1h17.8v5.1h-6.01v21.11h-5.82v-21.11Z"/>
      </g>
      <g>
        <path class="cls-5" d="M112.67,0C50.45,0,0,50.45,0,112.67s50.45,112.67,112.67,112.67h112.67v-112.67C225.35,50.45,174.9,0,112.67,0Z"/>
        <path class="cls-1" d="M112.67,207.85c-52.48,0-95.17-42.7-95.17-95.17S60.19,17.5,112.67,17.5s95.17,42.7,95.17,95.17v95.17h-95.17Z"/>
        <path class="cls-2" d="M112.67,190.35c-42.83,0-77.68-34.85-77.68-77.68S69.84,35,112.67,35s77.68,34.85,77.68,77.68v77.68h-77.68Z"/>
        <circle class="cls-4" cx="112.67" cy="112.67" r="56.34"/>
        <path class="cls-3" d="M112.67,169.01c-31.11,0-56.34-25.22-56.34-56.34s25.22-56.34,56.34-56.34v112.67Z"/>
      </g>
      <g>
        <path class="cls-3" d="M287.83,97.46V16.13h18.53v81.33h-18.53Z"/>
        <path class="cls-3" d="M366.91,16.13h18.53v81.33h-16.29l-26.68-46.74v46.74h-18.53V16.13h17l25.97,46.15V16.13Z"/>
        <path class="cls-3" d="M398.67,73.73h18.53c0,5.19,5.19,9.21,11.57,9.21,6.02,0,10.62-3.07,10.62-8.38,0-3.19-1.77-6.14-8.97-8.5l-9.68-2.95c-17.94-4.84-21.37-15.82-21.37-23.49,0-14.64,12.51-24.91,28.68-24.91s27.5,9.32,27.5,25.14h-18.53c0-4.84-2.95-8.97-9.32-8.97-5.78,0-9.56,3.9-9.56,8.38,0,1.65.47,5.31,8.03,7.44l8.5,2.72c11.57,3.54,23.37,9.44,23.37,24.2,0,17.47-15.11,25.26-29.98,25.26-17.35,0-29.39-10.15-29.39-25.14Z"/>
        <path class="cls-3" d="M471.02,97.46V16.13h18.53v81.33h-18.53Z"/>
        <path class="cls-3" d="M502.42,56.85c0-23.14,18.3-42.14,41.79-42.14,12.87,0,24.08,5.43,31.16,13.93l-13.69,11.45c-4.37-5.07-10.51-8.14-17.47-8.14-13.1,0-23.14,11.33-23.14,24.91s9.8,25.5,23.73,25.5c9.09,0,19.12-5.08,19.12-13.1h-22.9v-14.99h43.08c0,30.81-17.12,44.62-38.84,44.62-25.02,0-42.85-19.12-42.85-42.02Z"/>
        <path class="cls-3" d="M640.89,16.13h18.53v81.33h-18.53v-32.11h-26.79v32.11h-18.53V16.13h18.53v32.58h26.79V16.13Z"/>
        <path class="cls-3" d="M731.54,16.13v16.17h-21.48v65.16h-18.53V32.3h-21.48v-16.17h61.5Z"/>
        <path class="cls-3" d="M283.11,183.09c0-22.9,18.41-41.91,41.31-41.91,14.28,0,26.8,7.2,34.23,18.06l-14.4,10.03c-4.25-6.61-10.51-10.62-19.01-10.62-13.69,0-23.49,10.98-23.49,24.44s9.44,24.79,23.37,24.79c8.62,0,14.87-4.01,19.12-10.62l14.4,10.03c-7.44,10.86-19.95,18.06-34.23,18.06-22.9,0-41.31-19.12-41.31-42.26Z"/>
        <path class="cls-3" d="M388.05,207.76h34.7v16.17h-53.24v-81.33h52.17v16.17h-33.64v16.76h29.51v16.64h-29.51v15.58Z"/>
        <path class="cls-3" d="M479.64,142.6h18.53v81.33h-16.29l-26.68-46.74v46.74h-18.53v-81.33h17l25.97,46.15v-46.15Z"/>
        <path class="cls-3" d="M570.18,142.6v16.17h-21.48v65.16h-18.53v-65.16h-21.48v-16.17h61.5Z"/>
        <path class="cls-3" d="M599.22,207.76h34.7v16.17h-53.24v-81.33h52.17v16.17h-33.64v16.76h29.51v16.64h-29.51v15.58Z"/>
        <path class="cls-3" d="M688.81,223.93l-18.65-28.57h-3.78v28.57h-18.53v-81.33h33.29c18.89,0,27.38,13.46,27.38,26.91,0,11.45-8.5,22.43-19,24.79l20.89,29.63h-21.6ZM666.38,158.77v21.96h11.8c8.14,0,11.69-5.31,11.69-10.74s-3.66-11.21-11.21-11.21h-12.28Z"/>
      </g>
    </g>
  </g>
</svg>