<?xml version="1.0" encoding="UTF-8"?>
<svg id="Layer_2" data-name="Layer 2" xmlns="http://www.w3.org/2000/svg" viewBox="0 0 734.67 229.08">
  <defs>
    <style>
      .cls-1 {
        fill: #43a997;
      }

      .cls-2 {
        fill: #fff;
      }

      .cls-3 {
        fill: #1a5853;
      }

      .cls-4 {
        fill: #8bc2df;
      }

      .cls-5 {
        fill: #99d4c3;
      }
    </style>
  </defs>
  <g id="Layer_1-2" data-name="Layer 1">
    <g>
      <g>
        <path class="cls-5" d="M114.54,0C51.28,0,0,51.28,0,114.54s51.28,114.54,114.54,114.54h114.54v-114.54C229.08,51.28,177.8,0,114.54,0Z"/>
        <path class="cls-1" d="M114.54,211.29c-53.35,0-96.75-43.4-96.75-96.75S61.19,17.79,114.54,17.79s96.75,43.4,96.75,96.75v96.75h-96.75Z"/>
        <path class="cls-2" d="M114.54,193.51c-43.54,0-78.96-35.42-78.96-78.96S71,35.58,114.54,35.58s78.96,35.42,78.96,78.96v78.96h-78.96Z"/>
        <circle class="cls-4" cx="114.54" cy="114.54" r="57.27"/>
        <path class="cls-3" d="M114.54,171.81c-31.63,0-57.27-25.64-57.27-57.27s25.64-57.27,57.27-57.27v114.54Z"/>
      </g>
      <g>
        <path class="cls-3" d="M294.4,104.79V22.11h18.84v82.68h-18.84Z"/>
        <path class="cls-3" d="M373,22.11h18.84v82.68h-16.56l-27.12-47.52v47.52h-18.84V22.11h17.28l26.4,46.92V22.11Z"/>
        <path class="cls-3" d="M403.48,80.67h18.84c0,5.28,5.28,9.36,11.76,9.36,6.12,0,10.8-3.12,10.8-8.52,0-3.24-1.8-6.24-9.12-8.64l-9.84-3c-18.24-4.92-21.72-16.08-21.72-23.88,0-14.88,12.72-25.32,29.16-25.32s27.96,9.48,27.96,25.56h-18.84c0-4.92-3-9.12-9.48-9.12-5.88,0-9.72,3.96-9.72,8.52,0,1.68.48,5.4,8.16,7.56l8.64,2.76c11.76,3.6,23.76,9.6,23.76,24.6,0,17.76-15.36,25.68-30.48,25.68-17.64,0-29.88-10.32-29.88-25.56Z"/>
        <path class="cls-3" d="M475.24,104.79V22.11h18.84v82.68h-18.84Z"/>
        <path class="cls-3" d="M505.36,63.51c0-23.52,18.6-42.84,42.48-42.84,13.08,0,24.48,5.52,31.68,14.16l-13.92,11.64c-4.44-5.16-10.68-8.28-17.76-8.28-13.32,0-23.52,11.52-23.52,25.32s9.96,25.92,24.12,25.92c9.24,0,19.44-5.16,19.44-13.32h-23.28v-15.24h43.8c0,31.32-17.4,45.36-39.48,45.36-25.44,0-43.56-19.44-43.56-42.72Z"/>
        <path class="cls-3" d="M644.31,22.11h18.84v82.68h-18.84v-32.64h-27.24v32.64h-18.84V22.11h18.84v33.12h27.24V22.11Z"/>
        <path class="cls-3" d="M734.67,22.11v16.44h-21.84v66.24h-18.84V38.55h-21.84v-16.44h62.52Z"/>
        <path class="cls-3" d="M289.6,186.12c0-23.28,18.72-42.6,42-42.6,14.52,0,27.24,7.32,34.8,18.36l-14.64,10.2c-4.32-6.72-10.68-10.8-19.32-10.8-13.92,0-23.88,11.16-23.88,24.84s9.6,25.2,23.76,25.2c8.76,0,15.12-4.08,19.44-10.8l14.64,10.2c-7.56,11.04-20.28,18.36-34.8,18.36-23.28,0-42-19.44-42-42.96Z"/>
        <path class="cls-3" d="M394.48,211.2h35.28v16.44h-54.12v-82.68h53.04v16.44h-34.2v17.04h30v16.92h-30v15.84Z"/>
        <path class="cls-3" d="M485.8,144.96h18.84v82.68h-16.56l-27.12-47.52v47.52h-18.84v-82.68h17.28l26.4,46.92v-46.92Z"/>
        <path class="cls-3" d="M576.03,144.96v16.44h-21.84v66.24h-18.84v-66.24h-21.84v-16.44h62.52Z"/>
        <path class="cls-3" d="M603.75,211.2h35.28v16.44h-54.12v-82.68h53.04v16.44h-34.2v17.04h30v16.92h-30v15.84Z"/>
        <path class="cls-3" d="M693.03,227.64l-18.96-29.04h-3.84v29.04h-18.84v-82.68h33.84c19.2,0,27.84,13.68,27.84,27.36,0,11.64-8.64,22.8-19.32,25.2l21.24,30.12h-21.96ZM670.23,161.4v22.32h12c8.28,0,11.88-5.4,11.88-10.92s-3.72-11.4-11.4-11.4h-12.48Z"/>
      </g>
    </g>
  </g>
</svg>