<?xml version="1.0" encoding="UTF-8"?>
<svg id="Layer_2" data-name="Layer 2" xmlns="http://www.w3.org/2000/svg" viewBox="0 0 734.67 371.16">
  <defs>
    <style>
      .cls-1 {
        fill: #43a997;
      }

      .cls-2 {
        fill: #fff;
      }

      .cls-3 {
        fill: #1a5853;
      }

      .cls-4 {
        fill: #8bc2df;
      }

      .cls-5 {
        fill: #99d4c3;
      }
    </style>
  </defs>
  <g id="Layer_1-2" data-name="Layer 1">
    <g>
      <g>
        <path class="cls-4" d="M295.09,270.93h20.01v6.87h-12.11v7.65h9.6v6.87h-9.6v13.96h-7.9v-35.35Z"/>
        <path class="cls-4" d="M324.07,288.58c0-10.57,6.36-18.27,15.5-18.27s15.5,7.7,15.5,18.27-6.41,18.32-15.5,18.32-15.5-7.75-15.5-18.32ZM347.16,288.58c0-6.21-3.08-10.83-7.65-10.83s-7.49,4.62-7.49,10.83,2.98,10.88,7.49,10.88,7.65-4.67,7.65-10.88Z"/>
        <path class="cls-4" d="M366.96,270.93h12.93c7.39,0,11.08,5.54,11.03,11.65-.1,5.23-3.44,8.93-6.93,10.11l7.7,13.6h-8.93l-6.82-12.93h-1.13v12.93h-7.85v-35.35ZM378.76,287.65c2.93,0,4.11-2.26,4.11-4.87s-1.23-4.98-4-4.98h-4.05v9.85h3.95Z"/>
        <path class="cls-5" d="M418.01,288.53c0-10.78,7.08-18.22,15.65-18.22,5.54,0,10.31,2.87,13.03,8.06l-6.26,3.85c-1.44-2.93-3.64-4.46-6.62-4.46-4.82,0-7.95,4.51-7.95,10.78s3.08,10.93,7.95,10.93c2.98,0,5.18-1.54,6.62-4.46l6.26,3.85c-2.72,5.18-7.49,8.06-13.03,8.06-8.57,0-15.65-7.44-15.65-18.37Z"/>
        <path class="cls-5" d="M455.77,288.58c0-10.57,6.36-18.27,15.5-18.27s15.5,7.7,15.5,18.27-6.41,18.32-15.5,18.32-15.5-7.75-15.5-18.32ZM478.86,288.58c0-6.21-3.08-10.83-7.65-10.83s-7.49,4.62-7.49,10.83,2.98,10.88,7.49,10.88,7.65-4.67,7.65-10.88Z"/>
        <path class="cls-5" d="M497.17,288.58c0-10.83,7.03-18.27,15.86-18.27,5.08,0,9.54,2.16,12.26,6.52l-6.21,4.26c-1.44-2.21-3.59-3.39-6-3.39-4.82,0-8.11,5.03-8.11,10.88s3.23,11.14,8.26,11.14c3.34,0,6.41-1.9,7.03-5.85h-7.95v-6.31h15.91c0,13.65-6.31,19.34-14.83,19.34-9.29,0-16.21-7.44-16.21-18.32Z"/>
        <path class="cls-5" d="M539.4,270.93h7.24l8.98,19.24v-19.24h7.9v35.35h-7.08l-9.13-19.29v19.29h-7.9v-35.35Z"/>
        <path class="cls-5" d="M576.85,270.93h7.9v35.35h-7.9v-35.35Z"/>
        <path class="cls-5" d="M603.68,277.8h-8.06v-6.87h24.01v6.87h-8.11v28.48h-7.85v-28.48Z"/>
        <path class="cls-5" d="M630.41,270.93h7.9v35.35h-7.9v-35.35Z"/>
        <path class="cls-5" d="M648.88,270.93h8.16l5.13,23.91,5.03-23.91h8.21l-9.29,35.35h-7.9l-9.34-35.35Z"/>
        <path class="cls-5" d="M685.97,270.93h20.32v6.87h-12.42v7.54h10.88v7.08h-10.88v6.98h12.78v6.88h-20.68v-35.35Z"/>
        <path class="cls-5" d="M295.09,335.19h12.93c8.93,0,13.75,7.65,13.75,17.75s-4.82,17.6-13.75,17.6h-12.93v-35.35ZM307.25,363.67c4.46,0,6.57-4.98,6.57-10.72s-2.1-10.88-6.62-10.88h-4.21v21.6h4.26Z"/>
        <path class="cls-5" d="M333.72,335.19h20.32v6.87h-12.42v7.54h10.88v7.08h-10.88v6.98h12.78v6.88h-20.68v-35.35Z"/>
        <path class="cls-5" d="M363.68,335.19h8.16l5.13,23.91,5.03-23.91h8.21l-9.29,35.35h-7.9l-9.34-35.35Z"/>
        <path class="cls-5" d="M400.77,335.19h20.32v6.87h-12.42v7.54h10.88v7.08h-10.88v6.98h12.78v6.88h-20.68v-35.35Z"/>
        <path class="cls-5" d="M433.56,335.19h7.9v28.48h11.19v6.88h-19.09v-35.35Z"/>
        <path class="cls-5" d="M460.7,352.84c0-10.57,6.36-18.27,15.5-18.27s15.5,7.7,15.5,18.27-6.41,18.32-15.5,18.32-15.5-7.75-15.5-18.32ZM483.79,352.84c0-6.21-3.08-10.83-7.65-10.83s-7.49,4.62-7.49,10.83,2.98,10.88,7.49,10.88,7.65-4.67,7.65-10.88Z"/>
        <path class="cls-5" d="M503.59,335.19h13.19c7.34,0,10.78,5.59,10.78,11.65s-3.44,11.65-10.78,11.65h-5.34v12.06h-7.85v-35.35ZM516.01,351.61c2.67,0,3.59-2.41,3.59-4.77s-.92-4.77-3.59-4.77h-4.57v9.55h4.57Z"/>
        <path class="cls-5" d="M540.48,335.19h6.87l8.47,21.7,8.42-21.7h6.93l3.64,35.35h-7.9l-1.95-20.32-6.21,16.42h-5.8l-6.31-16.42-1.95,20.32h-7.9l3.69-35.35Z"/>
        <path class="cls-5" d="M586.7,335.19h20.32v6.87h-12.42v7.54h10.88v7.08h-10.88v6.98h12.78v6.88h-20.68v-35.35Z"/>
        <path class="cls-5" d="M619.48,335.19h7.24l8.98,19.24v-19.24h7.9v35.35h-7.08l-9.13-19.29v19.29h-7.9v-35.35Z"/>
        <path class="cls-5" d="M662.48,342.06h-8.06v-6.87h24.01v6.87h-8.11v28.48h-7.85v-28.48Z"/>
      </g>
      <g>
        <path class="cls-5" d="M114.54,0C51.28,0,0,51.28,0,114.54s51.28,114.54,114.54,114.54h114.54v-114.54C229.08,51.28,177.8,0,114.54,0Z"/>
        <path class="cls-1" d="M114.54,211.29c-53.35,0-96.75-43.4-96.75-96.75S61.19,17.79,114.54,17.79s96.75,43.4,96.75,96.75v96.75h-96.75Z"/>
        <path class="cls-2" d="M114.54,193.51c-43.54,0-78.96-35.42-78.96-78.96S71,35.58,114.54,35.58s78.96,35.42,78.96,78.96v78.96h-78.96Z"/>
        <circle class="cls-4" cx="114.54" cy="114.54" r="57.27"/>
        <path class="cls-3" d="M114.54,171.81c-31.63,0-57.27-25.64-57.27-57.27s25.64-57.27,57.27-57.27v114.54Z"/>
      </g>
      <g>
        <path class="cls-2" d="M294.4,104.79V22.11h18.84v82.68h-18.84Z"/>
        <path class="cls-2" d="M373,22.11h18.84v82.68h-16.56l-27.12-47.52v47.52h-18.84V22.11h17.28l26.4,46.92V22.11Z"/>
        <path class="cls-2" d="M403.48,80.67h18.84c0,5.28,5.28,9.36,11.76,9.36,6.12,0,10.8-3.12,10.8-8.52,0-3.24-1.8-6.24-9.12-8.64l-9.84-3c-18.24-4.92-21.72-16.08-21.72-23.88,0-14.88,12.72-25.32,29.16-25.32s27.96,9.48,27.96,25.56h-18.84c0-4.92-3-9.12-9.48-9.12-5.88,0-9.72,3.96-9.72,8.52,0,1.68.48,5.4,8.16,7.56l8.64,2.76c11.76,3.6,23.76,9.6,23.76,24.6,0,17.76-15.36,25.68-30.48,25.68-17.64,0-29.88-10.32-29.88-25.56Z"/>
        <path class="cls-2" d="M475.24,104.79V22.11h18.84v82.68h-18.84Z"/>
        <path class="cls-2" d="M505.36,63.51c0-23.52,18.6-42.84,42.48-42.84,13.08,0,24.48,5.52,31.68,14.16l-13.92,11.64c-4.44-5.16-10.68-8.28-17.76-8.28-13.32,0-23.52,11.52-23.52,25.32s9.96,25.92,24.12,25.92c9.24,0,19.44-5.16,19.44-13.32h-23.28v-15.24h43.8c0,31.32-17.4,45.36-39.48,45.36-25.44,0-43.56-19.44-43.56-42.72Z"/>
        <path class="cls-2" d="M644.31,22.11h18.84v82.68h-18.84v-32.64h-27.24v32.64h-18.84V22.11h18.84v33.12h27.24V22.11Z"/>
        <path class="cls-2" d="M734.67,22.11v16.44h-21.84v66.24h-18.84V38.55h-21.84v-16.44h62.52Z"/>
        <path class="cls-2" d="M289.6,186.12c0-23.28,18.72-42.6,42-42.6,14.52,0,27.24,7.32,34.8,18.36l-14.64,10.2c-4.32-6.72-10.68-10.8-19.32-10.8-13.92,0-23.88,11.16-23.88,24.84s9.6,25.2,23.76,25.2c8.76,0,15.12-4.08,19.44-10.8l14.64,10.2c-7.56,11.04-20.28,18.36-34.8,18.36-23.28,0-42-19.44-42-42.96Z"/>
        <path class="cls-2" d="M394.48,211.2h35.28v16.44h-54.12v-82.68h53.04v16.44h-34.2v17.04h30v16.92h-30v15.84Z"/>
        <path class="cls-2" d="M485.8,144.96h18.84v82.68h-16.56l-27.12-47.52v47.52h-18.84v-82.68h17.28l26.4,46.92v-46.92Z"/>
        <path class="cls-2" d="M576.03,144.96v16.44h-21.84v66.24h-18.84v-66.24h-21.84v-16.44h62.52Z"/>
        <path class="cls-2" d="M603.75,211.2h35.28v16.44h-54.12v-82.68h53.04v16.44h-34.2v17.04h30v16.92h-30v15.84Z"/>
        <path class="cls-2" d="M693.03,227.64l-18.96-29.04h-3.84v29.04h-18.84v-82.68h33.84c19.2,0,27.84,13.68,27.84,27.36,0,11.64-8.64,22.8-19.32,25.2l21.24,30.12h-21.96ZM670.23,161.4v22.32h12c8.28,0,11.88-5.4,11.88-10.92s-3.72-11.4-11.4-11.4h-12.48Z"/>
      </g>
    </g>
  </g>
</svg>